<svg width="195" height="59" viewBox="0 0 195 59" fill="none" xmlns="http://www.w3.org/2000/svg">
<path d="M66.5685 21L74.8821 0.737374H76.9084L85.1922 21H82.0634L80.1266 15.9641H71.6341L69.6973 21H66.5685ZM72.5579 13.4611H79.173L75.8952 4.8197L72.5579 13.4611ZM92.0048 21.3576C90.9122 21.3576 89.9487 21.1987 89.1144 20.8808C88.28 20.563 87.6046 20.0763 87.0881 19.4207C86.5915 18.7652 86.2836 17.9308 86.1644 16.9177H89.1144C89.2137 17.5335 89.4123 18.0103 89.7103 18.348C90.0282 18.6658 90.3957 18.8843 90.8129 19.0035C91.23 19.1227 91.6671 19.1823 92.124 19.1823C92.9384 19.1823 93.5642 19.0333 94.0012 18.7354C94.4383 18.4175 94.6568 17.9606 94.6568 17.3646C94.6568 16.9475 94.478 16.5998 94.1204 16.3217C93.7827 16.0237 93.2861 15.7854 92.6305 15.6066C92.2531 15.4874 91.8061 15.3781 91.2896 15.2788C90.7731 15.1596 90.2566 15.0305 89.7401 14.8914C89.2435 14.7325 88.7965 14.5537 88.3992 14.3551C87.8629 14.0571 87.4258 13.6896 87.0881 13.2525C86.7703 12.7956 86.6113 12.2493 86.6113 11.6136C86.6113 10.7197 86.8299 9.97475 87.2669 9.37879C87.7238 8.78283 88.3396 8.33586 89.1144 8.03788C89.909 7.7399 90.8228 7.59091 91.8558 7.59091C93.2464 7.59091 94.4184 7.86902 95.3719 8.42525C96.3453 8.98148 96.9612 9.96481 97.2194 11.3753H94.2694C94.1701 10.9581 94.0012 10.6303 93.7629 10.3919C93.5245 10.1337 93.2364 9.96481 92.8987 9.88535C92.561 9.78603 92.1836 9.73636 91.7664 9.73636C91.23 9.73636 90.7334 9.85556 90.2765 10.0939C89.8196 10.3323 89.5911 10.7098 89.5911 11.2263C89.5911 11.7428 89.8097 12.1202 90.2467 12.3586C90.6837 12.5771 91.1605 12.7559 91.677 12.8949C91.975 12.9545 92.3425 13.034 92.7795 13.1333C93.2364 13.2327 93.7033 13.3519 94.18 13.4909C94.6767 13.6101 95.1137 13.769 95.4911 13.9677C96.1666 14.2657 96.693 14.6828 97.0704 15.2192C97.4479 15.7556 97.6366 16.4111 97.6366 17.1859C97.6366 18.1791 97.3883 18.9837 96.8916 19.5995C96.395 20.1955 95.7196 20.6424 94.8654 20.9404C94.031 21.2185 93.0775 21.3576 92.0048 21.3576ZM106.687 21.2384C105.296 21.2384 104.044 20.9603 102.932 20.404C101.839 19.8279 100.965 19.0333 100.31 18.0202C99.6542 16.9872 99.3265 15.7854 99.3265 14.4146C99.3265 13.1035 99.6443 11.9315 100.28 10.8985C100.916 9.86549 101.77 9.05101 102.843 8.45505C103.915 7.83923 105.117 7.53131 106.448 7.53131C107.72 7.53131 108.882 7.83923 109.935 8.45505C110.987 9.05101 111.832 9.85556 112.467 10.8687C113.123 11.8818 113.451 13.034 113.451 14.3253V15.1596H101.502V13.0141H110.56C110.401 12.1401 109.944 11.4051 109.19 10.8091C108.435 10.1933 107.531 9.88535 106.478 9.88535C105.624 9.88535 104.879 10.084 104.243 10.4813C103.627 10.8588 103.151 11.3852 102.813 12.0606C102.475 12.7162 102.306 13.471 102.306 14.3253C102.306 15.2391 102.495 16.0337 102.872 16.7091C103.27 17.3845 103.776 17.9109 104.392 18.2884C105.028 18.646 105.703 18.8247 106.418 18.8247C107.034 18.8247 107.6 18.7552 108.117 18.6162C108.653 18.4572 109.13 18.2487 109.547 17.9904C109.984 17.7322 110.352 17.4143 110.65 17.0369L112.557 18.646C112.14 19.1625 111.613 19.6194 110.977 20.0167C110.342 20.3941 109.656 20.6921 108.921 20.9106C108.186 21.1291 107.441 21.2384 106.687 21.2384ZM120.755 21.3576C119.663 21.3576 118.699 21.1987 117.865 20.8808C117.03 20.563 116.355 20.0763 115.839 19.4207C115.342 18.7652 115.034 17.9308 114.915 16.9177H117.865C117.964 17.5335 118.163 18.0103 118.461 18.348C118.779 18.6658 119.146 18.8843 119.563 19.0035C119.98 19.1227 120.417 19.1823 120.874 19.1823C121.689 19.1823 122.315 19.0333 122.752 18.7354C123.189 18.4175 123.407 17.9606 123.407 17.3646C123.407 16.9475 123.228 16.5998 122.871 16.3217C122.533 16.0237 122.036 15.7854 121.381 15.6066C121.003 15.4874 120.557 15.3781 120.04 15.2788C119.524 15.1596 119.007 15.0305 118.491 14.8914C117.994 14.7325 117.547 14.5537 117.15 14.3551C116.613 14.0571 116.176 13.6896 115.839 13.2525C115.521 12.7956 115.362 12.2493 115.362 11.6136C115.362 10.7197 115.58 9.97475 116.017 9.37879C116.474 8.78283 117.09 8.33586 117.865 8.03788C118.659 7.7399 119.573 7.59091 120.606 7.59091C121.997 7.59091 123.169 7.86902 124.122 8.42525C125.096 8.98148 125.712 9.96481 125.97 11.3753H123.02C122.92 10.9581 122.752 10.6303 122.513 10.3919C122.275 10.1337 121.987 9.96481 121.649 9.88535C121.311 9.78603 120.934 9.73636 120.517 9.73636C119.98 9.73636 119.484 9.85556 119.027 10.0939C118.57 10.3323 118.342 10.7098 118.342 11.2263C118.342 11.7428 118.56 12.1202 118.997 12.3586C119.434 12.5771 119.911 12.7559 120.427 12.8949C120.725 12.9545 121.093 13.034 121.53 13.1333C121.987 13.2327 122.454 13.3519 122.93 13.4909C123.427 13.6101 123.864 13.769 124.242 13.9677C124.917 14.2657 125.443 14.6828 125.821 15.2192C126.198 15.7556 126.387 16.4111 126.387 17.1859C126.387 18.1791 126.139 18.9837 125.642 19.5995C125.145 20.1955 124.47 20.6424 123.616 20.9404C122.781 21.2185 121.828 21.3576 120.755 21.3576ZM135.258 21.2384C133.927 21.2384 132.715 20.9404 131.623 20.3444C130.53 19.7485 129.666 18.9439 129.03 17.9308C128.395 16.8978 128.077 15.7258 128.077 14.4146C128.077 13.1035 128.395 11.9315 129.03 10.8985C129.686 9.86549 130.55 9.05101 131.623 8.45505C132.715 7.85909 133.927 7.56111 135.258 7.56111C136.589 7.56111 137.791 7.85909 138.864 8.45505C139.956 9.05101 140.82 9.86549 141.456 10.8985C142.092 11.9315 142.41 13.1035 142.41 14.4146C142.41 15.7258 142.092 16.8978 141.456 17.9308C140.82 18.9439 139.956 19.7485 138.864 20.3444C137.791 20.9404 136.589 21.2384 135.258 21.2384ZM135.258 18.7056C136.112 18.7056 136.847 18.5069 137.463 18.1096C138.099 17.7123 138.586 17.1859 138.923 16.5303C139.281 15.8747 139.46 15.1596 139.46 14.3848C139.46 13.6101 139.281 12.9049 138.923 12.2692C138.586 11.6136 138.099 11.0872 137.463 10.6899C136.847 10.2926 136.112 10.0939 135.258 10.0939C134.424 10.0939 133.689 10.2926 133.053 10.6899C132.417 11.0872 131.921 11.6136 131.563 12.2692C131.226 12.9049 131.057 13.6101 131.057 14.3848C131.057 15.1596 131.226 15.8747 131.563 16.5303C131.921 17.1859 132.407 17.7123 133.023 18.1096C133.659 18.5069 134.404 18.7056 135.258 18.7056ZM145.557 21V7.88889H148.417V10.1237C148.676 9.52778 148.974 9.05101 149.311 8.69343C149.669 8.31599 150.066 8.03788 150.503 7.85909C150.94 7.6803 151.407 7.59091 151.904 7.59091C152.122 7.59091 152.351 7.62071 152.589 7.6803C152.828 7.72003 153.036 7.78956 153.215 7.88889V11.0475C152.996 10.8091 152.738 10.6402 152.44 10.5409C152.162 10.4217 151.874 10.3621 151.576 10.3621C150.96 10.3621 150.414 10.5707 149.937 10.9879C149.46 11.3852 149.083 11.8918 148.805 12.5076C148.547 13.1234 148.417 13.769 148.417 14.4444V21H145.557ZM156.3 21V7.88889H159.191V21H156.3ZM156.598 6.45859L159.34 2.01869H162.141L158.803 6.45859H156.598ZM169.057 21.298C167.825 21.298 166.722 20.9801 165.749 20.3444C164.776 19.6889 164.011 18.8446 163.455 17.8116C162.918 16.7588 162.65 15.6364 162.65 14.4444C162.65 13.2327 162.918 12.1103 163.455 11.0773C164.011 10.0443 164.776 9.20993 165.749 8.57424C166.722 7.91869 167.825 7.59091 169.057 7.59091C170.05 7.59091 170.954 7.78956 171.768 8.18687C172.583 8.58417 173.278 9.16027 173.854 9.91515V7.88889H176.744V21H173.854V18.9737C173.516 19.4505 173.099 19.8677 172.602 20.2253C172.106 20.5828 171.56 20.851 170.964 21.0298C170.368 21.2086 169.732 21.298 169.057 21.298ZM169.742 18.7056C170.537 18.7056 171.242 18.5069 171.858 18.1096C172.473 17.7123 172.96 17.1958 173.318 16.5601C173.675 15.9045 173.854 15.1993 173.854 14.4444C173.854 13.6896 173.675 12.9943 173.318 12.3586C172.96 11.703 172.473 11.1766 171.858 10.7793C171.242 10.382 170.537 10.1833 169.742 10.1833C168.947 10.1833 168.242 10.382 167.626 10.7793C167.01 11.1766 166.524 11.703 166.166 12.3586C165.809 12.9943 165.63 13.6896 165.63 14.4444C165.63 15.1993 165.809 15.9045 166.166 16.5601C166.524 17.1958 167.01 17.7123 167.626 18.1096C168.242 18.5069 168.947 18.7056 169.742 18.7056ZM185.327 21.3576C184.235 21.3576 183.271 21.1987 182.437 20.8808C181.602 20.563 180.927 20.0763 180.41 19.4207C179.914 18.7652 179.606 17.9308 179.487 16.9177H182.437C182.536 17.5335 182.735 18.0103 183.033 18.348C183.351 18.6658 183.718 18.8843 184.135 19.0035C184.552 19.1227 184.989 19.1823 185.446 19.1823C186.261 19.1823 186.887 19.0333 187.324 18.7354C187.761 18.4175 187.979 17.9606 187.979 17.3646C187.979 16.9475 187.8 16.5998 187.443 16.3217C187.105 16.0237 186.608 15.7854 185.953 15.6066C185.575 15.4874 185.129 15.3781 184.612 15.2788C184.096 15.1596 183.579 15.0305 183.063 14.8914C182.566 14.7325 182.119 14.5537 181.722 14.3551C181.185 14.0571 180.748 13.6896 180.41 13.2525C180.093 12.7956 179.934 12.2493 179.934 11.6136C179.934 10.7197 180.152 9.97475 180.589 9.37879C181.046 8.78283 181.662 8.33586 182.437 8.03788C183.231 7.7399 184.145 7.59091 185.178 7.59091C186.569 7.59091 187.741 7.86902 188.694 8.42525C189.668 8.98148 190.284 9.96481 190.542 11.3753H187.592C187.492 10.9581 187.324 10.6303 187.085 10.3919C186.847 10.1337 186.559 9.96481 186.221 9.88535C185.883 9.78603 185.506 9.73636 185.089 9.73636C184.552 9.73636 184.056 9.85556 183.599 10.0939C183.142 10.3323 182.914 10.7098 182.914 11.2263C182.914 11.7428 183.132 12.1202 183.569 12.3586C184.006 12.5771 184.483 12.7559 184.999 12.8949C185.297 12.9545 185.665 13.034 186.102 13.1333C186.559 13.2327 187.026 13.3519 187.502 13.4909C187.999 13.6101 188.436 13.769 188.814 13.9677C189.489 14.2657 190.015 14.6828 190.393 15.2192C190.77 15.7556 190.959 16.4111 190.959 17.1859C190.959 18.1791 190.711 18.9837 190.214 19.5995C189.717 20.1955 189.042 20.6424 188.188 20.9404C187.353 21.2185 186.4 21.3576 185.327 21.3576Z" fill="#5FB680"/>
<path d="M66.9121 56.1616V35.899H74.0338C75.186 35.899 76.2388 36.1572 77.1924 36.6737C78.1658 37.1902 78.9405 37.9153 79.5166 38.849C80.1126 39.7827 80.4106 40.8753 80.4106 42.1268C80.4106 43.3783 80.1225 44.4808 79.5464 45.4343C78.9703 46.368 78.1956 47.103 77.2222 47.6394C76.2686 48.1559 75.2059 48.4141 74.0338 48.4141H69.8025V56.1616H66.9121ZM69.8025 45.9111H73.9146C74.59 45.9111 75.1959 45.7522 75.7323 45.4343C76.2885 45.0966 76.7255 44.6397 77.0434 44.0636C77.3612 43.4875 77.5202 42.832 77.5202 42.097C77.5202 41.3421 77.3612 40.6965 77.0434 40.1601C76.7454 39.6039 76.3282 39.1668 75.7919 38.849C75.2555 38.5311 74.6298 38.3722 73.9146 38.3722H69.8025V45.9111ZM88.6832 56.4C87.2927 56.4 86.0411 56.1219 84.9287 55.5657C83.8361 54.9896 82.962 54.195 82.3065 53.1818C81.6509 52.1488 81.3231 50.947 81.3231 49.5763C81.3231 48.2652 81.641 47.0931 82.2767 46.0601C82.9124 45.0271 83.7666 44.2126 84.8393 43.6167C85.912 43.0008 87.1139 42.6929 88.4448 42.6929C89.7162 42.6929 90.8783 43.0008 91.9312 43.6167C92.9841 44.2126 93.8283 45.0172 94.464 46.0303C95.1196 47.0434 95.4474 48.1956 95.4474 49.4869V50.3212H83.4984V48.1758H92.557C92.398 47.3017 91.9411 46.5667 91.1863 45.9707C90.4314 45.3549 89.5275 45.047 88.4746 45.047C87.6204 45.047 86.8755 45.2456 86.2398 45.6429C85.624 46.0204 85.1472 46.5468 84.8095 47.2222C84.4718 47.8778 84.3029 48.6327 84.3029 49.4869C84.3029 50.4007 84.4916 51.1953 84.8691 51.8707C85.2664 52.5461 85.773 53.0726 86.3888 53.45C87.0245 53.8076 87.6999 53.9864 88.415 53.9864C89.0309 53.9864 89.597 53.9168 90.1135 53.7778C90.6499 53.6189 91.1267 53.4103 91.5438 53.152C91.9809 52.8938 92.3484 52.5759 92.6464 52.1985L94.5534 53.8076C94.1363 54.3241 93.6098 54.781 92.9741 55.1783C92.3384 55.5557 91.6531 55.8537 90.9181 56.0722C90.1831 56.2907 89.4381 56.4 88.6832 56.4ZM98.5994 56.1616V43.0505H101.46V45.2854C101.718 44.6894 102.016 44.2126 102.354 43.8551C102.712 43.4776 103.109 43.1995 103.546 43.0207C103.983 42.8419 104.45 42.7525 104.946 42.7525C105.165 42.7525 105.393 42.7823 105.632 42.8419C105.87 42.8817 106.079 42.9512 106.258 43.0505V46.2091C106.039 45.9707 105.781 45.8019 105.483 45.7025C105.205 45.5833 104.917 45.5237 104.619 45.5237C104.003 45.5237 103.457 45.7323 102.98 46.1495C102.503 46.5468 102.126 47.0534 101.847 47.6692C101.589 48.285 101.46 48.9306 101.46 49.6061V56.1616H98.5994ZM109.104 56.1616V43.0505H111.965V45.0768C112.402 44.4212 112.968 43.8749 113.663 43.4379C114.379 42.981 115.203 42.7525 116.137 42.7525C117.209 42.7525 118.103 42.971 118.819 43.4081C119.554 43.8451 120.1 44.4709 120.457 45.2854C120.815 46.0998 120.994 47.0732 120.994 48.2056V56.1616H118.133V48.2056C118.133 47.6891 118.054 47.2123 117.895 46.7753C117.756 46.3382 117.517 45.9906 117.18 45.7323C116.842 45.4741 116.375 45.345 115.779 45.345C114.925 45.345 114.21 45.5734 113.634 46.0303C113.077 46.4673 112.66 47.0633 112.382 47.8182C112.104 48.5731 111.965 49.4074 111.965 50.3212V56.1616H109.104ZM130.276 56.4596C129.044 56.4596 127.942 56.1418 126.969 55.5061C125.995 54.8505 125.23 54.0062 124.674 52.9732C124.138 51.9204 123.87 50.798 123.87 49.6061C123.87 48.3943 124.138 47.2719 124.674 46.2389C125.23 45.2059 125.995 44.3716 126.969 43.7359C127.942 43.0803 129.044 42.7525 130.276 42.7525C131.269 42.7525 132.173 42.9512 132.988 43.3485C133.802 43.7458 134.497 44.3219 135.074 45.0768V43.0505H137.964V56.1616H135.074V54.1354C134.736 54.6121 134.319 55.0293 133.822 55.3869C133.325 55.7444 132.779 56.0126 132.183 56.1914C131.587 56.3702 130.952 56.4596 130.276 56.4596ZM130.961 53.8672C131.756 53.8672 132.461 53.6685 133.077 53.2712C133.693 52.8739 134.18 52.3574 134.537 51.7217C134.895 51.0662 135.074 50.3609 135.074 49.6061C135.074 48.8512 134.895 48.1559 134.537 47.5202C134.18 46.8647 133.693 46.3382 133.077 45.9409C132.461 45.5436 131.756 45.345 130.961 45.345C130.167 45.345 129.462 45.5436 128.846 45.9409C128.23 46.3382 127.743 46.8647 127.386 47.5202C127.028 48.1559 126.849 48.8512 126.849 49.6061C126.849 50.3609 127.028 51.0662 127.386 51.7217C127.743 52.3574 128.23 52.8739 128.846 53.2712C129.462 53.6685 130.167 53.8672 130.961 53.8672ZM142.047 56.1616V33.8131H144.938V56.1616H142.047ZM155.525 56.4C154.134 56.4 152.883 56.1219 151.77 55.5657C150.678 54.9896 149.804 54.195 149.148 53.1818C148.493 52.1488 148.165 50.947 148.165 49.5763C148.165 48.2652 148.483 47.0931 149.118 46.0601C149.754 45.0271 150.608 44.2126 151.681 43.6167C152.754 43.0008 153.956 42.6929 155.287 42.6929C156.558 42.6929 157.72 43.0008 158.773 43.6167C159.826 44.2126 160.67 45.0172 161.306 46.0303C161.961 47.0434 162.289 48.1956 162.289 49.4869V50.3212H150.34V48.1758H159.399C159.24 47.3017 158.783 46.5667 158.028 45.9707C157.273 45.3549 156.369 45.047 155.316 45.047C154.462 45.047 153.717 45.2456 153.082 45.6429C152.466 46.0204 151.989 46.5468 151.651 47.2222C151.314 47.8778 151.145 48.6327 151.145 49.4869C151.145 50.4007 151.333 51.1953 151.711 51.8707C152.108 52.5461 152.615 53.0726 153.231 53.45C153.866 53.8076 154.542 53.9864 155.257 53.9864C155.873 53.9864 156.439 53.9168 156.955 53.7778C157.492 53.6189 157.968 53.4103 158.386 53.152C158.823 52.8938 159.19 52.5759 159.488 52.1985L161.395 53.8076C160.978 54.3241 160.452 54.781 159.816 55.1783C159.18 55.5557 158.495 55.8537 157.76 56.0722C157.025 56.2907 156.28 56.4 155.525 56.4ZM166.621 56.1616V45.4939H163.433V43.0505H166.621V37.9849H169.482V43.0505H172.641V45.4939H169.482V56.1616H166.621ZM181.133 56.4C179.742 56.4 178.491 56.1219 177.378 55.5657C176.285 54.9896 175.411 54.195 174.756 53.1818C174.1 52.1488 173.773 50.947 173.773 49.5763C173.773 48.2652 174.09 47.0931 174.726 46.0601C175.362 45.0271 176.216 44.2126 177.289 43.6167C178.361 43.0008 179.563 42.6929 180.894 42.6929C182.166 42.6929 183.328 43.0008 184.381 43.6167C185.433 44.2126 186.278 45.0172 186.913 46.0303C187.569 47.0434 187.897 48.1956 187.897 49.4869V50.3212H175.948V48.1758H185.006C184.847 47.3017 184.391 46.5667 183.636 45.9707C182.881 45.3549 181.977 45.047 180.924 45.047C180.07 45.047 179.325 45.2456 178.689 45.6429C178.073 46.0204 177.597 46.5468 177.259 47.2222C176.921 47.8778 176.752 48.6327 176.752 49.4869C176.752 50.4007 176.941 51.1953 177.318 51.8707C177.716 52.5461 178.222 53.0726 178.838 53.45C179.474 53.8076 180.149 53.9864 180.864 53.9864C181.48 53.9864 182.046 53.9168 182.563 53.7778C183.099 53.6189 183.576 53.4103 183.993 53.152C184.43 52.8938 184.798 52.5759 185.096 52.1985L187.003 53.8076C186.586 54.3241 186.059 54.781 185.424 55.1783C184.788 55.5557 184.102 55.8537 183.367 56.0722C182.632 56.2907 181.888 56.4 181.133 56.4Z" fill="#5FB680"/>
<path d="M57.8242 35.2639L23.7522 1.19193L57.8242 1.19192L57.8242 35.2639Z" stroke="#EFA721" stroke-width="2.38384"/>
<path d="M36.9494 56.1224L2.87749 22.0505L36.9494 22.0505L36.9494 56.1224Z" stroke="#EFA721" stroke-width="2.38384"/>
<path d="M46.4848 45.9911L12.4129 11.9192L46.4848 11.9192L46.4848 45.9911Z" stroke="#EFA721" stroke-width="2.38384"/>
</svg>
